<mxfile host="Electron" modified="2024-05-23T13:56:15.762Z" agent="Mozilla/5.0 (Macintosh; Intel Mac OS X 10_15_7) AppleWebKit/537.36 (KHTML, like Gecko) draw.io/24.4.6 Chrome/124.0.6367.207 Electron/30.0.6 Safari/537.36" etag="LCso5RvSvJi6XqvrvqSh" version="24.4.6" type="device">
  <diagram name="Page-1" id="c3Ild-POrsof7_AOVVm6">
    <mxGraphModel dx="1434" dy="907" grid="1" gridSize="10" guides="1" tooltips="1" connect="1" arrows="1" fold="1" page="1" pageScale="1" pageWidth="827" pageHeight="1169" math="0" shadow="0">
      <root>
        <mxCell id="0" />
        <mxCell id="1" parent="0" />
        <mxCell id="_HeCEHXMy81gqy9KuDD3-17" style="edgeStyle=orthogonalEdgeStyle;rounded=0;orthogonalLoop=1;jettySize=auto;html=1;exitX=0.005;exitY=0.63;exitDx=0;exitDy=0;exitPerimeter=0;startArrow=classic;startFill=1;" parent="1" source="_HeCEHXMy81gqy9KuDD3-1" target="_HeCEHXMy81gqy9KuDD3-5" edge="1">
          <mxGeometry relative="1" as="geometry" />
        </mxCell>
        <mxCell id="_HeCEHXMy81gqy9KuDD3-18" style="edgeStyle=orthogonalEdgeStyle;rounded=0;orthogonalLoop=1;jettySize=auto;html=1;exitX=0.995;exitY=0.63;exitDx=0;exitDy=0;exitPerimeter=0;startArrow=classic;startFill=1;" parent="1" source="_HeCEHXMy81gqy9KuDD3-1" target="_HeCEHXMy81gqy9KuDD3-3" edge="1">
          <mxGeometry relative="1" as="geometry" />
        </mxCell>
        <mxCell id="_HeCEHXMy81gqy9KuDD3-1" value="" style="aspect=fixed;sketch=0;html=1;dashed=0;whitespace=wrap;verticalLabelPosition=bottom;verticalAlign=top;fillColor=#2875E2;strokeColor=#ffffff;points=[[0.005,0.63,0],[0.1,0.2,0],[0.9,0.2,0],[0.5,0,0],[0.995,0.63,0],[0.72,0.99,0],[0.5,1,0],[0.28,0.99,0]];shape=mxgraph.kubernetes.icon2;prIcon=api" parent="1" vertex="1">
          <mxGeometry x="364" y="290" width="83.33" height="80" as="geometry" />
        </mxCell>
        <mxCell id="_HeCEHXMy81gqy9KuDD3-32" style="edgeStyle=orthogonalEdgeStyle;rounded=0;orthogonalLoop=1;jettySize=auto;html=1;dashed=1;dashPattern=8 8;" parent="1" source="_HeCEHXMy81gqy9KuDD3-2" target="_HeCEHXMy81gqy9KuDD3-30" edge="1">
          <mxGeometry relative="1" as="geometry" />
        </mxCell>
        <mxCell id="_HeCEHXMy81gqy9KuDD3-2" value="Service A" style="text;html=1;align=center;verticalAlign=middle;whiteSpace=wrap;rounded=0;fontStyle=1" parent="1" vertex="1">
          <mxGeometry x="370" y="390" width="60" height="30" as="geometry" />
        </mxCell>
        <mxCell id="_HeCEHXMy81gqy9KuDD3-3" value="" style="aspect=fixed;sketch=0;html=1;dashed=0;whitespace=wrap;verticalLabelPosition=bottom;verticalAlign=top;fillColor=#2875E2;strokeColor=#ffffff;points=[[0.005,0.63,0],[0.1,0.2,0],[0.9,0.2,0],[0.5,0,0],[0.995,0.63,0],[0.72,0.99,0],[0.5,1,0],[0.28,0.99,0]];shape=mxgraph.kubernetes.icon2;prIcon=api" parent="1" vertex="1">
          <mxGeometry x="560" y="480" width="83.33" height="80" as="geometry" />
        </mxCell>
        <mxCell id="_HeCEHXMy81gqy9KuDD3-4" value="Service B" style="text;html=1;align=center;verticalAlign=middle;whiteSpace=wrap;rounded=0;fontStyle=1" parent="1" vertex="1">
          <mxGeometry x="566" y="580" width="60" height="30" as="geometry" />
        </mxCell>
        <mxCell id="_HeCEHXMy81gqy9KuDD3-27" style="edgeStyle=orthogonalEdgeStyle;rounded=0;orthogonalLoop=1;jettySize=auto;html=1;exitX=0.005;exitY=0.63;exitDx=0;exitDy=0;exitPerimeter=0;" parent="1" source="_HeCEHXMy81gqy9KuDD3-5" target="_HeCEHXMy81gqy9KuDD3-14" edge="1">
          <mxGeometry relative="1" as="geometry" />
        </mxCell>
        <mxCell id="_HeCEHXMy81gqy9KuDD3-5" value="" style="aspect=fixed;sketch=0;html=1;dashed=0;whitespace=wrap;verticalLabelPosition=bottom;verticalAlign=top;fillColor=#2875E2;strokeColor=#ffffff;points=[[0.005,0.63,0],[0.1,0.2,0],[0.9,0.2,0],[0.5,0,0],[0.995,0.63,0],[0.72,0.99,0],[0.5,1,0],[0.28,0.99,0]];shape=mxgraph.kubernetes.icon2;prIcon=api" parent="1" vertex="1">
          <mxGeometry x="204.34" y="480" width="83.33" height="80" as="geometry" />
        </mxCell>
        <mxCell id="_HeCEHXMy81gqy9KuDD3-6" value="Service C" style="text;html=1;align=center;verticalAlign=middle;whiteSpace=wrap;rounded=0;fontStyle=1" parent="1" vertex="1">
          <mxGeometry x="216" y="580" width="60" height="30" as="geometry" />
        </mxCell>
        <mxCell id="_HeCEHXMy81gqy9KuDD3-14" value="" style="image;sketch=0;aspect=fixed;html=1;points=[];align=center;fontSize=12;image=img/lib/mscae/Cache_Redis_Product.svg;" parent="1" vertex="1">
          <mxGeometry x="70" y="620" width="50" height="42" as="geometry" />
        </mxCell>
        <mxCell id="_HeCEHXMy81gqy9KuDD3-15" value="" style="image;aspect=fixed;html=1;points=[];align=center;fontSize=12;image=img/lib/azure2/databases/Azure_Database_PostgreSQL_Server.svg;" parent="1" vertex="1">
          <mxGeometry x="700" y="610" width="48" height="64" as="geometry" />
        </mxCell>
        <mxCell id="_HeCEHXMy81gqy9KuDD3-28" style="edgeStyle=orthogonalEdgeStyle;rounded=0;orthogonalLoop=1;jettySize=auto;html=1;exitX=0.995;exitY=0.63;exitDx=0;exitDy=0;exitPerimeter=0;entryX=0.646;entryY=-0.062;entryDx=0;entryDy=0;entryPerimeter=0;" parent="1" source="_HeCEHXMy81gqy9KuDD3-3" target="_HeCEHXMy81gqy9KuDD3-15" edge="1">
          <mxGeometry relative="1" as="geometry" />
        </mxCell>
        <mxCell id="_HeCEHXMy81gqy9KuDD3-29" style="edgeStyle=orthogonalEdgeStyle;rounded=0;orthogonalLoop=1;jettySize=auto;html=1;exitX=0.005;exitY=0.63;exitDx=0;exitDy=0;exitPerimeter=0;entryX=0.995;entryY=0.63;entryDx=0;entryDy=0;entryPerimeter=0;" parent="1" source="_HeCEHXMy81gqy9KuDD3-3" target="_HeCEHXMy81gqy9KuDD3-5" edge="1">
          <mxGeometry relative="1" as="geometry" />
        </mxCell>
        <mxCell id="6R-FA_frtMGWl-PoSHQv-3" style="edgeStyle=orthogonalEdgeStyle;rounded=0;orthogonalLoop=1;jettySize=auto;html=1;exitX=0;exitY=0.75;exitDx=0;exitDy=0;exitPerimeter=0;" parent="1" source="_HeCEHXMy81gqy9KuDD3-30" target="_HeCEHXMy81gqy9KuDD3-35" edge="1">
          <mxGeometry relative="1" as="geometry" />
        </mxCell>
        <mxCell id="6R-FA_frtMGWl-PoSHQv-4" style="edgeStyle=orthogonalEdgeStyle;rounded=0;orthogonalLoop=1;jettySize=auto;html=1;exitX=0;exitY=1;exitDx=0;exitDy=0;exitPerimeter=0;" parent="1" source="_HeCEHXMy81gqy9KuDD3-30" target="_HeCEHXMy81gqy9KuDD3-36" edge="1">
          <mxGeometry relative="1" as="geometry" />
        </mxCell>
        <mxCell id="6R-FA_frtMGWl-PoSHQv-5" style="edgeStyle=orthogonalEdgeStyle;rounded=0;orthogonalLoop=1;jettySize=auto;html=1;exitX=1;exitY=1;exitDx=0;exitDy=0;exitPerimeter=0;" parent="1" source="_HeCEHXMy81gqy9KuDD3-30" target="6R-FA_frtMGWl-PoSHQv-1" edge="1">
          <mxGeometry relative="1" as="geometry" />
        </mxCell>
        <mxCell id="6R-FA_frtMGWl-PoSHQv-6" style="edgeStyle=orthogonalEdgeStyle;rounded=0;orthogonalLoop=1;jettySize=auto;html=1;exitX=1;exitY=0.75;exitDx=0;exitDy=0;exitPerimeter=0;" parent="1" source="_HeCEHXMy81gqy9KuDD3-30" target="6R-FA_frtMGWl-PoSHQv-2" edge="1">
          <mxGeometry relative="1" as="geometry" />
        </mxCell>
        <mxCell id="_HeCEHXMy81gqy9KuDD3-30" value="" style="sketch=0;points=[[0,0,0],[0.25,0,0],[0.5,0,0],[0.75,0,0],[1,0,0],[0,1,0],[0.25,1,0],[0.5,1,0],[0.75,1,0],[1,1,0],[0,0.25,0],[0,0.5,0],[0,0.75,0],[1,0.25,0],[1,0.5,0],[1,0.75,0]];outlineConnect=0;fontColor=#232F3E;fillColor=#8C4FFF;strokeColor=#ffffff;dashed=0;verticalLabelPosition=bottom;verticalAlign=top;align=center;html=1;fontSize=12;fontStyle=0;aspect=fixed;shape=mxgraph.aws4.resourceIcon;resIcon=mxgraph.aws4.api_gateway;" parent="1" vertex="1">
          <mxGeometry x="361" y="770" width="78" height="78" as="geometry" />
        </mxCell>
        <mxCell id="_HeCEHXMy81gqy9KuDD3-31" value="&lt;div style=&quot;font-size: 15px;&quot;&gt;OTEL Gateway&lt;/div&gt;" style="text;html=1;align=center;verticalAlign=middle;whiteSpace=wrap;rounded=0;fontStyle=1;fontSize=15;" parent="1" vertex="1">
          <mxGeometry x="329.99999999999994" y="900" width="140" height="30" as="geometry" />
        </mxCell>
        <mxCell id="_HeCEHXMy81gqy9KuDD3-33" style="edgeStyle=orthogonalEdgeStyle;rounded=0;orthogonalLoop=1;jettySize=auto;html=1;entryX=0;entryY=0.5;entryDx=0;entryDy=0;entryPerimeter=0;dashed=1;dashPattern=8 8;" parent="1" source="_HeCEHXMy81gqy9KuDD3-6" target="_HeCEHXMy81gqy9KuDD3-30" edge="1">
          <mxGeometry relative="1" as="geometry" />
        </mxCell>
        <mxCell id="_HeCEHXMy81gqy9KuDD3-34" style="edgeStyle=orthogonalEdgeStyle;rounded=0;orthogonalLoop=1;jettySize=auto;html=1;entryX=1;entryY=0.5;entryDx=0;entryDy=0;entryPerimeter=0;dashed=1;dashPattern=8 8;" parent="1" source="_HeCEHXMy81gqy9KuDD3-4" target="_HeCEHXMy81gqy9KuDD3-30" edge="1">
          <mxGeometry relative="1" as="geometry" />
        </mxCell>
        <mxCell id="_HeCEHXMy81gqy9KuDD3-35" value="" style="sketch=0;points=[[0,0,0],[0.25,0,0],[0.5,0,0],[0.75,0,0],[1,0,0],[0,1,0],[0.25,1,0],[0.5,1,0],[0.75,1,0],[1,1,0],[0,0.25,0],[0,0.5,0],[0,0.75,0],[1,0.25,0],[1,0.5,0],[1,0.75,0]];points=[[0,0,0],[0.25,0,0],[0.5,0,0],[0.75,0,0],[1,0,0],[0,1,0],[0.25,1,0],[0.5,1,0],[0.75,1,0],[1,1,0],[0,0.25,0],[0,0.5,0],[0,0.75,0],[1,0.25,0],[1,0.5,0],[1,0.75,0]];outlineConnect=0;fontColor=#232F3E;fillColor=#E7157B;strokeColor=#ffffff;dashed=0;verticalLabelPosition=bottom;verticalAlign=top;align=center;html=1;fontSize=12;fontStyle=0;aspect=fixed;shape=mxgraph.aws4.resourceIcon;resIcon=mxgraph.aws4.cloudwatch_2;" parent="1" vertex="1">
          <mxGeometry x="60" y="930" width="80" height="80" as="geometry" />
        </mxCell>
        <mxCell id="_HeCEHXMy81gqy9KuDD3-36" value="" style="verticalLabelPosition=bottom;sketch=0;html=1;fillColor=#6ABD46;strokeColor=#ffffff;verticalAlign=top;align=center;points=[[0.085,0.085,0],[0.915,0.085,0],[0.915,0.915,0],[0.085,0.915,0],[0.25,0,0],[0.5,0,0],[0.75,0,0],[1,0.25,0],[1,0.5,0],[1,0.75,0],[0.75,1,0],[0.5,1,0],[0.25,1,0],[0,0.75,0],[0,0.5,0],[0,0.25,0]];pointerEvents=1;shape=mxgraph.cisco_safe.compositeIcon;bgIcon=mxgraph.cisco_safe.architecture.generic_appliance;resIcon=mxgraph.cisco_safe.architecture.log_collector;" parent="1" vertex="1">
          <mxGeometry x="216" y="930" width="80" height="76" as="geometry" />
        </mxCell>
        <mxCell id="6R-FA_frtMGWl-PoSHQv-1" value="" style="shape=image;aspect=fixed;image=data:image/png,iVBORw0KGgoAAAANSUhEUgAAAE8AAABOCAYAAABhaEsjAAABW2lDQ1BJQ0MgUHJvZmlsZQAAKJFtkN8rQ3EYxp+zhkKL0kH5sSuJkWYaJZoVMeo01LYL6+zs7EztHN/OjvAfSHK1SxduXGrJyr/gXuHCH8CF20Ws4/3uYBveer/Pp6enb28P4HLLjOXcAHTDMqNLC95YPOFteUITutGJaYiykmchSVqlCL61ccp3ELjejvG/VoqzpYvE1dv5UPLyZCAe+ZtvmNa0mldIP2hHFGZagDBMLO1ZjPM+cZdJRxEfc9YcPuOccrhUzWxEw8Q3xB1KVk4TPxD7UnW+Vsd6blf5uoFf364am+ukHto+ROBHEItYo3eKuvk/G6hmw9gBwwFMbENDFha8CJHDkINKvAwDCsbhI/ZjgjbAO/7dXc3TB4GZR8BVqXlb1EPxFOiJ1bzROUA8BK7vmWzKP40KZXc+M+l3uDcJtPXb9jP14TkCKqJtv87b9vsL0FwACsFPAKRgUlXSO1oAAABWZVhJZk1NACoAAAAIAAGHaQAEAAAAAQAAABoAAAAAAAOShgAHAAAAEgAAAESgAgAEAAAAAQAAAE+gAwAEAAAAAQAAAE4AAAAAQVNDSUkAAABTY3JlZW5zaG90vKxhWQAAAdRpVFh0WE1MOmNvbS5hZG9iZS54bXAAAAAAADx4OnhtcG1ldGEgeG1sbnM6eD0iYWRvYmU6bnM6bWV0YS8iIHg6eG1wdGs9IlhNUCBDb3JlIDYuMC4wIj4KICAgPHJkZjpSREYgeG1sbnM6cmRmPSJodHRwOi8vd3d3LnczLm9yZy8xOTk5LzAyLzIyLXJkZi1zeW50YXgtbnMjIj4KICAgICAgPHJkZjpEZXNjcmlwdGlvbiByZGY6YWJvdXQ9IiIKICAgICAgICAgICAgeG1sbnM6ZXhpZj0iaHR0cDovL25zLmFkb2JlLmNvbS9leGlmLzEuMC8iPgogICAgICAgICA8ZXhpZjpQaXhlbFlEaW1lbnNpb24+Nzg8L2V4aWY6UGl4ZWxZRGltZW5zaW9uPgogICAgICAgICA8ZXhpZjpQaXhlbFhEaW1lbnNpb24+Nzk8L2V4aWY6UGl4ZWxYRGltZW5zaW9uPgogICAgICAgICA8ZXhpZjpVc2VyQ29tbWVudD5TY3JlZW5zaG90PC9leGlmOlVzZXJDb21tZW50PgogICAgICA8L3JkZjpEZXNjcmlwdGlvbj4KICAgPC9yZGY6UkRGPgo8L3g6eG1wbWV0YT4K++8vxgAACmVJREFUeAHtmwlUVNcZx/+zD8sM4Fbc0UStSNGIxiChTUQTWnGpikdzRBNCrLu2MSYlWmPsiUabpnHH2FaPmhOr1gUVRdEIBqwJWrFGbVIViyyCsjnDDLP1u+icjiwyM+/OAod7zpw77717v/vd37v3u99dnqhrcA9LQVE+2oLjBMSOZ2nLYSXQBs9Kwom4DZ4T0KxZ2uBZSTgReyU8C1XkG8MdvF61B7t138IMdsf7gsibRlsLQSo1P8Qn2rNYoz1HtER1xIbLumCzaiLCpJ0hfnzPG1CKenTrZcn/702P62KECes0Wfi05msUEMD6QSWSI07+LLao4qEWK+s/9si1x+EZCNoJ/XWs0n6FbENBsxCCRT54x+9nSPIZBrXIsxA91m2ZFSswlWN21X4cM/zHYavWhSDuC5iOCFl3yEWSZqG7IoFH4JVbtFhWnYY9+qsos9Q4XS85WcAR8hB84j8GodJgp+U4m9Gt8PQWI77QXcJKbQZumSqd1blBPhlBXOwThbd8h6GXpH2D56664RZ4bBT9zliMkeUpKLboXVUX+Imk2KgahwRlhFtGZZfDyzc9wJLqYzhquAENtTx3hOelXZDs9xLGKMJcCtFl8IrNVdhRk4vlmpPQOzwcCEcsJX9woiIUS/1i6vxD4RIbSnAJvEP6K5hZfYAc3hoPYHuykgoaiZOUz9GgMhYKkezJhwKvuMFjU6jTtd/jY81XOGW4JVAtvtnZPKWPpB0W+kRips9wSEV8ZqVcnOTbZNdWa85gmy6XXF5+81DmvZn4csRgaUdsUE1AhFS4fyjoFegsBizTHMXgB+uRQhN4nuC6i32RHvgGppDdejTD5UPxorEUIyr+jAmV21FFZkVIcKrbmi0WcnAvYY0mE5dNJRzbGhAiVmORbxRmU/eSk+thtJiRXnsdH9NiQSattPAMgTRfXkTlzPKNxI+oXEeDQ/BMtDh03ViCpKq9OG8scrSsp6b3J2M+Xt4XG9QTEUBTr/rBQi/sc915Gr1Po4QWDvgZByBY5ItdAZMxXNYbPg4MKnbDqzbrMLd6Pw7RoFDF0dFlXTJW9gzWqEZjAE2xRE/ppMzZLjZXY7M2G6tpIcHwlLT14Td3zezrUPIP/6iKQ6SsV3PJ657bDW/c8nlIj9BC93wnQMzHCkVIgrHYLxqTFANpBHRscp9nLMSHmlM4ov83+ZEchhXWlGuM6FkmQ97ApVDLfJsFaPeAYfhnCdRzM9FucQ5EWgOE9Bs12Zq1fq/gH+3nY4pysMPgWK3CqZXsDUjAycBEdKZuLmiR1ETkCjXAhVKY79Jaop02wW54da+BGpw08y46jEmDel0exHpH37iFDPQLuNRuPt6m6ZOEqiwksC4eLe+NGx2WIEU1Fp3FDW1ls/KLtbTmXwrcoIUKs53UHguVNiu8kQSiSj2UO29AfqoADxeFo3Z4MMw+TYuSUSVfJjuywn8UhslCOFqqR8qpaFH0TXopo+X9aUA5gb3671DRnF2uqgVuVwNlzi9UNF3jRqDVvyUu0kD9bg7MIQGo2vAiaoMb2gklta7UwBm07tZHWNeqX3i9a2aFO0sCsFU9GcvNFYiv2IkcsosNAmtd1yqAEmE+HpMrlkgdM9QNlGFCblcicNJxqJddgKzg0f5DO7Jrq8muFXRIxkhyQQTZpMYKfcq9ruJAnA6ahdSAaRgkpQGOBQbtNul2/h4XcEykMKPDJFiDzgRlWj4Cp51Cr72FyBInYgnZtfZiP2sKt8ZK8tfiFAOQEzQP74hfgIgGA9ysAkhPXkFsMvITxpQSPTRAuyYb8SPjkZ6eAebcejIwiFNE4ZDUmLmrwa/l2ajGgJXdf4DEWfOQ8HoSci9esnnq/r98vNKGersEnrUYo9GIk2fOYvT4eCz93QoUF9M82MMt0aobj9il8KwKso67bftOjIiNw+YtW1sNQLfAYxAZwPsPyrFi1Vq8GjceR46mgbXMlhzshieRCHdprKAuX7mKpDnz8dqMRBQVFcFs5m/MrWW5MrYb3urfL8fAsFBuujDTdzYrG9ExsVj8bjIqKshxbWHBbngDQvsjLfUAVq1cjpAe3bhVs/qhBrv37EMM2cPdX/4NGg3NNVtIsBseqw/ruokzEpCTeRpvzpgGKceuXFBYjN8sScaLL4/E5bwrLWJQEQcGBTj8nsViMT5a+QFOHjuEcaNjwa55hcLiexg7aQqmJybh5s1bvMS6RI64otz5MyOh/X+MlE3rsf3zTQgPG0AQ+bijOp0e6Rln8eln611SaV5CBTcZkUiEV0eNRNrh/fhs7Sr4KBW8dIOFz7vgpk99QYLhWQVKpVJMjp+ErNMnsHDOTK4QrWV4W8wNnrVi3bt1Q/J7S3DiyEFER0XSIMO9CGtRHo9dVrN+ffvgix1/wfHDf0eX4Mdrah6vLl8FXAaPqSmXyxD+kzBkZpzAB++/h3aBjo/sfKvLV5pL4VlVValUmP2rJOTlXsCggWHW2y0+dgs8KyWZTIIeXbtaL1t8zGUPo8VTcLICbm15TuooOBtbDnNF4L6H4QolhcjUGWux6042TC5YwRa0byukUq7OqzPV4njRFfw2bx+uVzWyf8tBgVYJ767mPsZl/Qm5FXc4IGpaRKuBx+xakZY+W6CWdvjuRVQbhJ8IaBrboyetAl4VgdqTn4NkAldWS6ed3BRaNDy2jZlVeh1x59bjYa2WNplcNa42/jZaLLzL5flY8a+DSC26DKOZ36kHR87UtCh4dcdqtRXY8P1JfHTtCDUHvgt+4UEh2DR4KtTyhqe9Gmt7Uh6npBoTzPse66IpP2Tgg6uHUKKjAzscwXVSqLBz2FuI7tQfPlK53ap7fctjXfI4dc3V147i67If7K6YPQkVEgUW9xuFeX1HIVgZaE+WJ9JIeZ+SekK6wItKGgTiszfiYEGuQElPZleIpfhpp37YGzkXAQrnj8B5dcvbfzcPNQV8/bUB6s5IGZqIoe17Q04QhQRhuYWUbEdenocwnvHviDl9RmEB/aSctkq9Gp4dfJtNwrro9J6RWDdkBpQSvp+MtmJ4IkzqPhjLQscjPKhHs5CdSdAq4UUE9URy6BiM7zaEPlbi6wvaQm5V8BTULVMiEpDQK5qguX6d1+3wfjluDL7JvYiiEjqdzinICNSCfq9gzrMx6O3vvm1Ot+9h/OLnsTiTfgyvTZ6AALXj37ja8matK4ZmBRdjP8QfBk11KzimB5fP5G0rZO9/Nt0qKCzEol+/jXPnv200W+VznaCf2qfRZ0Fyf6RGL+TirzVagB03PbaHwQ4IdadtyC9378Rft27EoHDaz7XDuLeX+2HNwMm4HbcWUR37CnZ07WDUZBK7v7dtUgKnB+xw98ZNW7Btxy7cKy2rk2rb8vylCowIDqubwKtlTnzdyElPWzGuH5JsS3vKf3bKasH8uchIS0XSGwl0fP7/C5tDyPXIinkfB6Lm0UfE3gGOVcVrWp4tV2YPc2lE3ph9BC/FjSDXI8otroetDvb890p49ijuDWm8ptt6AwxHdWiD5ygxm/Rt8GxgOPq3DZ6jxGzS/w+vd1FmKCCi9QAAAABJRU5ErkJggg==;" parent="1" vertex="1">
          <mxGeometry x="530" y="930" width="79" height="78" as="geometry" />
        </mxCell>
        <mxCell id="6R-FA_frtMGWl-PoSHQv-2" value="" style="shape=image;aspect=fixed;image=data:image/png,iVBORw0KGgoAAAANSUhEUgAAAEsAAABJCAYAAAB1htvhAAABW2lDQ1BJQ0MgUHJvZmlsZQAAKJFtkN8rQ3EYxp+zhkKL0kH5sSuJkWYaJZoVMeo01LYL6+zs7EztHN/OjvAfSHK1SxduXGrJyr/gXuHCH8CF20Ws4/3uYBveer/Pp6enb28P4HLLjOXcAHTDMqNLC95YPOFteUITutGJaYiykmchSVqlCL61ccp3ELjejvG/VoqzpYvE1dv5UPLyZCAe+ZtvmNa0mldIP2hHFGZagDBMLO1ZjPM+cZdJRxEfc9YcPuOccrhUzWxEw8Q3xB1KVk4TPxD7UnW+Vsd6blf5uoFf364am+ukHto+ROBHEItYo3eKuvk/G6hmw9gBwwFMbENDFha8CJHDkINKvAwDCsbhI/ZjgjbAO/7dXc3TB4GZR8BVqXlb1EPxFOiJ1bzROUA8BK7vmWzKP40KZXc+M+l3uDcJtPXb9jP14TkCKqJtv87b9vsL0FwACsFPAKRgUlXSO1oAAABWZVhJZk1NACoAAAAIAAGHaQAEAAAAAQAAABoAAAAAAAOShgAHAAAAEgAAAESgAgAEAAAAAQAAAEugAwAEAAAAAQAAAEkAAAAAQVNDSUkAAABTY3JlZW5zaG90Qo+qVQAAAdRpVFh0WE1MOmNvbS5hZG9iZS54bXAAAAAAADx4OnhtcG1ldGEgeG1sbnM6eD0iYWRvYmU6bnM6bWV0YS8iIHg6eG1wdGs9IlhNUCBDb3JlIDYuMC4wIj4KICAgPHJkZjpSREYgeG1sbnM6cmRmPSJodHRwOi8vd3d3LnczLm9yZy8xOTk5LzAyLzIyLXJkZi1zeW50YXgtbnMjIj4KICAgICAgPHJkZjpEZXNjcmlwdGlvbiByZGY6YWJvdXQ9IiIKICAgICAgICAgICAgeG1sbnM6ZXhpZj0iaHR0cDovL25zLmFkb2JlLmNvbS9leGlmLzEuMC8iPgogICAgICAgICA8ZXhpZjpQaXhlbFlEaW1lbnNpb24+NzM8L2V4aWY6UGl4ZWxZRGltZW5zaW9uPgogICAgICAgICA8ZXhpZjpQaXhlbFhEaW1lbnNpb24+NzU8L2V4aWY6UGl4ZWxYRGltZW5zaW9uPgogICAgICAgICA8ZXhpZjpVc2VyQ29tbWVudD5TY3JlZW5zaG90PC9leGlmOlVzZXJDb21tZW50PgogICAgICA8L3JkZjpEZXNjcmlwdGlvbj4KICAgPC9yZGY6UkRGPgo8L3g6eG1wbWV0YT4K6IROyAAAFl5JREFUeAHtXHl4VdW1X5nnkIlMhIwEEpIQIBBmCPOMaC0+1Aq1fa1WrdL3ae3z1bY+61etVYr0+bDWV57FAQStjAIPZA7zHKaEEEiAhCQEMkBG3vqtc/e9597cm3tvcuPnH67vu/ecs+ezztprr2lvtydHLbtHenDjB04xXMiNb+6hhOnGkIlCxkyp5Ma17rlxOsrrQTWmS3PjuvfQsCFPLvpyuGdQSWg7MT2SvvfMMIrsHUKtrW2098uztO2zk9Rwu4lL3pNuZQx8Z6huSNOGhDxTOZWGXkz3GLqpDfPy7lJS/amRGSojWRBlfmNKNGWihDZcS0RpGZKv/xNE6fKkmr4u7vknXfC1R4Q/Pf2naZSUGSWIqrhcQ1MXDKIFL40ndw8gXpVHJa2eKc2U1z7N1IcpT7XBH8DYLpEgCwQCMFy0h07+9wj3pxEz+tHcJ4ZR3vcyyT/Ix25LHp7u5OvvxQOwPgIPD3ea869DyTfAW9ryD/SmwmPlUjxjRG/6yauTKSDYfj92B2KngCfyBXu6q5067bIxpfyCvBk5WTRpfib5+PGLM4B6evUJo4/+uIvuteETtQcvbw/6/nOj6MjWImpubqHIuBA6tK2IWlvapLBfgBc9+mIeDRgTb6yM/kqLqozPmaPiKe/BTFr/wWFjWnfcCLKMDeumoTHNzo2buxsl9Y+i+c+PptjkULPSt6oaaOC4RGqobZQXabrbYsz3ZCSlDe5FM3+UQ9GJIZQ7JYWam1rpTl0zjZzVj1qaW4XfRPXuQSE9A4z15IbHWXvzDl06XUGJGZGSNPmRbLp4qpzOHCg1L+vCJ0EWqB/U1QlcUXR8CD320ljqGdej3bDc3d2p5kYDU9sA6jsolr587yCVMUWk5/am+58aRkEhvmZ1vHw8ZdqGxwSapcsDjw9MHVPWnT9Qj3A/WvPufnp28UxJA4XO+GEOFZ24TvqP0r6hzqdo09BQX01HR5vz5pfL+34mhUUHWa0CPpS/4TzFJIVSfFoEPfXmNKq/3UgBPXxtsSer7SARU7r8Ug3dbWim5AFRlJIdQ2uW5tOxHZcoZ2Ky1IvjKR+TGEolZ2/YbKcrGearocMtuQlfmrdoFI2ekyZf1lpVb19PQc61izclG1M2kKnJBh+31oQxDXVjGRkVV27RP989QP1z4yRv1eK9dLWI22fKQ38DxyYZ67j6RkOWdd7bQV+8pDLDDgrx66CMlpU+pBd9vfqUcRGxW8FOgdzpqdQ3J5ZWMpKwCNTW3KFlv/qKSs5o1BSbYs437TTnVLaGLPWp1dWBJqKZ3FMHRdstmZgZSaUXqlhwvGu3rCMFwK/SmaoGj082UnTltVpasmg9U9xB2vbpKUea6VQZbTVUzEpd7TblxozYmzy87M9i8C0/lo9uVtQLr7LbtIMFhjGFNTW2EKYh+Bl42eaPjnFtLFOOgPPLmfnbOkxZ94R3NDCzdgSgnlw4es2Rog6VabzTQnfrm1j47Ut9B8da1HGUpzhaztS8YRqaEhy7c2NKqaOvPzvtUPFgXubPHHSR/MPvuOIPO+n3j62mLStO0LgH+js0BlcU0pClkOzwNNR0pi0fH6fT+67YHUf19VpZsYz6oEUNLBbll29RQX4pFewvZapptiihe+TZU3SynGoq62nziqPU3NhKQaH2FxpdC52+NVCWYZ47PA21/tpa79Enb+6muhrb0xGS+On8K9RQ18hSuabC6Efbxoj6+I+76bWFq+ndFzfRh6/toNss+XcEY+/XqAntXTlfRQn9enZU3GV5BsoykJbDlGXqv5qn4x9+tMYqhTUy0121eB9B7fHx9TKuXqbaRJ//ZT/tXX9O1Bsgv45FgXOHr+qLtLufMC+D+g/rLTJba0srhURaqEPtargmwaDuaLYl59cHbRDgX//Nss6kf8km6Gg+LBxi9fv7q9upmPU1QNboeFFTtBraP6hu77qzspqpdFBaWaFJSVbp+ivUImgDACBr/QdH9dnddq+pOwaKUqyrM72BKrbw0n1oS6GYUqrL63g5byJPTw/KmZxCc34y1KxZWA5geoli3VKvnkD3Sx5gX35TjXlw+9ljEmjPl2eo7pZrZDnVtuVVk7MsUzv5DJXkwZ+PoMa7rSxa1FAwS/gDxsbzNGmvGIPZo/xj/5FH7yzaQKFsWRgxsx+rKwkU4IBmoB9iQnpPmjAvi9b+7ZBNU5C+fGfvXYosDMKHhdBsNss4CrBavPDeXF7RfNniqbFQR+vqy02cn0VXi2/Soa2F+mSX3nd+dNaGwfMYNimngBklTMZdQRT68/SCiWZwt4oRjCzNjK+9oEGEcOptTYUxtepqupdvqN7AZrGInDt0lY5sK6aq63VsZQ1mnTFFFXH5laeh5hXRWu4Ki9cMiNeKq10+SH2DN3nh2MNenSPbL1JF2W0jj8qdnEoLXs5jK2tf2rGme5RpbRp2jaD07yISuFmCix/2rD1HG//3KJWzXUtv14etHxCVEEqwmnYHyDQUY7eLWr/OLqoWZ/mWnb4hZijIGpVAcanhbEA0pQWzR2kAr6IAD15hIZJ0B3CrXZt6loPC1y4rvGn0zljmd+ZZr1MmpEfQc+/MErnNn00/cHzc99Nc6tkrWJqGbNd4twPdsjMDMNQR0UF5YLvQjlnV9SzvDBqfREMmpZAXS/MdQRUb7sJjrNvwbdWDfWzKo9k04aEsVqRbyI/9iArOMsMH8+8OEHrVs3hXdFLA5pg1f8nn3wFpTj9lVPsq7cSuyywbFankduVVObMChocm1j2rrtYas4Ck/I0XjM+uvvEYGj/7t65uFO1B3qqpbBCVJ4l9e7bkqESWvk/uvkw7vygQKd5RpbissJr+wXatwUzBcPDCrFN4/JrY+0FtCsDsw9n7hH6gfA+d1IfGPpBB9bcaqfLqbVXMoatbu8AQh6o5UYj58Px/G0Oj70vrsNKBTYX0yVu7aOjEPjT7p0PFHQ91yBLAvypLb9PiZzfQrUqWrdgKC7205kY9T782iXuITginfuynTB8Wx0iKIB/2alvCqj/vY+OlcyJGxwzFsofOPPPUgAoCm3lHS/pQ9kgHhfny1N1Pry74jNJyelHG8Hj2D0aJMxaenKvsUju4uZCn2nlRq9KGxFE0+yShMoVGBVBYVCD7MAPZJeZl190WGuG8WYeRZQrEwWrcHcwRkvYdduF78RJvDW5X3RFp/E5dk0yV3f8soINsvcAPY8LLt7Khr4XNMQD4Hn/2xjRx3Fprr6O08hJW8HkcIZHWx9JRXUaWib13B6LQ+R12LthyqcMl/8Fv/o8un6+kXinhIgJMmp8tK9wpNlnDHgZxAODJ3qScCSk05QcDKTohRNKc+QPCP35zD/3g38dScM9OIYu7A2vopuUWL9PGUwhGPWuA1c6Xl/7w2CBatHSm2UKQ92CGIPlqUbXwJUjpsGp0Fk7sLmEfZqW4zfz8fcRyq6J1HGmz+3kWjwIxWioMyXJQQBYcDlfOVbIfsJXjtMylb7jkVaSMZV1nnrEI5G+6IMElMHf7czwXLBXOIEsbmfWP7sxYOiwLd3tQmHUPDHgSAuBgYgZf6wrgxdt4WlsD6JLnD5dJfuOdZpnSHS041tqQxRmzsLsgmhXbuU/ktrO/6/sLYf7Rwi/aUKvxJn2eM/dw3a98ey/BCasHqGDgVfBgg8LAQ2Huhi3fGfDsTqKCMLjw5fGyelkOCtNP6XyhbHYGVdxhd1lnAULqxuVHGFHNVMxBbnOfzBVvNWz6hcevU9FxzWPUxqsYPgpCD5ymrM4Ozl49IODpP00XC4Eqq1ddFKKQF8quLCDLFmXp66m21BV5cLR+/l/5giikl7J3aNmvNtOnb3GkDVPSga90KhBTB0QV8CunKas7FsKk/pH08ItjKTLePBpQjyD1srgCWYB6G94Zy3p6qkQeeFHRCc3lJg3xH9StPWvPiOgB6V4Pt6s1ZHn7Omf3cvk0HDA6kX78nxNlWYbJt/jUDbpVXU89Y4PF5hTBIoIlIAoZniCYhh0BPfLAn1a8sVv4kbW6V61YbmvZ6evhyQF5diwilu1xFQ26yrsQNzVyVhrNYb0OfALQb0gs9eOVEHZ5xCcgphTL9pRHB1IKhzoqgA4IKkRMhC24xp4bhC9heotcyAUhu21afpQ93uaUY6sNlX67ukHccH6B5jGtKt/W1WWUNYS1eUQstwP+GoHs5spmSyZ+G//nKL37y0303JJZZvwsNimMyi5a90SDaS/9xUYJBklMj+IQ8v6UMSqemtjSANe/s4BIZ0zlgBDnYuedWzttjAqC4/SFg2zkmidP43INtXdp8TPr6EnW7xSFxaaE0cl9l80L8xOW++WvfC2IQualM+UcFlAugm4gB/IiNsJZgOcaIkRwiHMqj8wXtdpAQOwMjGP7UCTHq9sC1T7y0cckjodw4y0kCPJX/CcmKYQwPaAa6csX7CulU/ntkYjY+orSW7a67DAdchaoFXFjzoAgSw24M4o09s0gyB+gf0n9IFT7Ki2EzSPzfj5SjHWwlAKwIuJbIUZClQev+2LZAadUEmnMgb+b5fU2tQpb1bvM4LExQO3PUS9pqzOVjnJDp/YRl9YXHPifyftvwLWhJJdfuU0R7HxA7BWk8RudpB7pi7Hv5e0pCwPs9tip0btvBKVkRvMmh2BZbNSYHLl2mcEj5Of8kWs0eEKSI/2ZlUkf2ot2fl7A4UqbRcaCPQu7vTKGx3GbZXRyT4lZeXsPmOK+/t68XyhcAtzi2UoKZwh4W0APHwkExsqLFRkR1AVObl3pMoPH1P3krd3Ms4LNVjd7L4b8hPRIalt9mh2zplDLG2wyBmz42xGbshNEE+wCCwj2pWBW0CPZUprAOzgS0iI5hKmHqDKgTAQIQ9CFF/ssB8hdLqhgu1kVU2+NeIWkIyf+uows9IUBQb144vWpbMDTPMOOjAGxCZZwo4yZNn8Ad4OshnzwRewWS+a9hlg9QTkILYcwC9kLyIMifr24hnazax8boK6VVMvuDlARwr6dMcVYjkk9uwRZaAyM+e2n18kGykRWdxwBtX9QXxYyEMw1CNvGxgB4n2H0g28QLwymj7BL2OOrWIgtu1Atm6eus7kYK1x3gqesYPwlYVzGnO/MiqgGCKsBYkiff+8+ldTh1dKUgsKggkbeajfCsMKWl9yiw1svysoJ0zN2akDvw88V1NLhAC0yPfUrWFcQpdq9dKaCdjHTHmOIKFbp1q4w8VoCKAvRy4hTreBwb0Q5f1tA5CxXD2bzR8dZSrf/kke2F7frGpR19OuLdImZ8bcJURioIItnn0uhhl1f2HQEr681gMd44/JjIh5Yy/+2pmkeaWCL+VaXvTyqHcPbwj83jwNyM0ZwWDfEX+4DtvA17+znpby06/19w1j9Rtz3fgE+stTDognF15Zb7Bt+d6e7c5noYLNnpiaskl2xr9ts+xvOYOFfgelOpXx3NceATjdk5XYyR7D82HwnBNzrCKpF3AGOAcBqpQcIi4uWziZfP2/azlvqtq86IdkI2nj4+TH6omb3O1nN2bpSK9uPg0AeeWEsT882WvLcehFw9YWh+C749Xh9kpRFNM1hDsSFDqnfXQFnRHxaTxo7N51328aIalR78y6dPVhGOz4/TdizjfdSANUJJwIMm5ZKvVkIxjuh/KWCG7TpwyOiR6Ks2TSE6hAeG8hxS7Vs4tXs4X6BXsKgEcuJ3V3v/3qrSNiqI7wodtfDrDx9QTZHzFyQMxew4kHCBsAqEZcaxiFCDbJVDmn1BvkJii0GiX4BiGVf8TofmqET+hAKiXxI7hBSAZD+U3NiKI3DiqDevP/yVgk7Qh6ORpjGR68gvrSEdcHiUxUE2//wmawV8E79z1hw3rdRs7BiZ8fjv5tIiCGDg7bkbJXIeEGsfPfNieZNV9q2ZbRrJsEr2/aetWdp8z+whRY2KmJ9L4J++JvxlMWm3DH3pTMFmeKaciYkS7kzB8oojW3uaWxJQFhQ0cnr9Odn10leGm8qf+atGXRy72XecgdESLL8wXQC6wOiWwDY/xzKoUPW7PGn9pbSR2/skHL4g8llIVMcqGfY1FT6iscckxhGMxYOlg/6wSvb6QRTHQDvgWNf5jO1z/1ZLh3bdUn4aN6DWZScFcV+xXJazhuz1AdGHVCo3qnhji9oiqNBEXPAi5UWVvIRKbtlAANGJxgdEjjPIYufC5ji1r1/SII6cqekmjege9JvT1DJsLIGhfnT6qX7Oba9WFz5cHI4AnBx4WwHwBDeTAUYNaefWB22rTxNJ/ZqiEI63gNxXYjMQchS9phEceEPn5EqeSsX7zFDFOpAR63XCdfmErzhi/NHaAdQP+r56CWEJMKTi+kz6/EcIca17LUpOXdDTC2grji2ClgDy4+CgBBMGUTJFBy4ItvpEJqETUv4qo7AtUs3JUQS3m9YH+JSI0SeOwVE6SgYbUFkOc3UDYCCHswfCXYubAYtu6htdoCuPIw/+Nj7M+QHFqPAHFmGVIs+tFR8GvwEPW4UwUa1zJG9eY5XsjmkhvmDu3xlFHngqeEdxjaozkGlvhzCiMhAfCA4P/euPy9n2mSz/9ER0IZl+gyI4cIobcWD3TVYJnw4zgFxrkAObF9qAwKMhfNfGE0P/WIkPbRoJPXRbeczY/CKZ1mjLByJglUCTgKQZ9rQOKYyHzrFX2rY1L58CNhw6RgDQKx6TDK7tiw2WVq2OygvWSwHCMd+7p3ZYgtTxx+MnpvGPK7EpgFQIRKhkWD2OEkEVgiYasCscRiQNQdrLx4XoJpVMqygzUzJONcGB3rgQA0Ezv31pa18ZEuKhHaqfnA1pyx8EgbDRXsw/OO4J7i8cDIHvgSOVcEKiLBsOCD285kz+evPSZwVBp/FKo4l6NsNiwriuNFYCeKoZYpCfBbawA82q/h+ERTGX7kjAFWM4gWHL3SWFxjAUYNyPp2ZvGWEtF+gD1tDtEDgs4ewcb1J3P5YbUfO1tLR92m23GKniAAaN4A5ZRkSYxn7A8clyRMO9kJI9KC8JEKA/w6WjzJHxsuc3/PlOZaJamnD8sOqPXEIvPDXucxo02TV1BvkVLdA8jwmc0S0rF6STzdv1NGqJXulDYytlgcMP+Q45hufvr3b2HYEiw8YFxYKHz9POaUtlx0fUNiVKHDm4BXZry2HkL02mW1hRZIPtxc2fwJhx3eViFUDDcNCglNNJj88QPY8ImaikZFo5LvCerQhGLw7HP5jGBLm7pBJyfIzJMl8BoNf9uIWkXUe/+0Etkq20JaPNfFClcP1Chvojm0rpkETk2gkL9XbDefQyKrLnaAfxGzhjJoSFvoun9fOkFFtYGxb+QUmPJQp1AtxAID0voNj5AeKkvZYrgR1/P2V7dIvysF5ivj4J1+fQhn8keE5UuWRd5lnBk4MUHLcucNl9OHvd9IjvxzNnu4MObQMHwz5EFxZTjaCmSIdyWdgYQutHrCCQJgE/4FzEsdAQRZCxwX8FRHUagk9eFr2ZdkHDPsce2mCQ/0l5gHOCBgHwWdSsqKF/+n3R+vbSR0YI3LURY6RgFXUUpzAR61jioJYg6ljCdjsBCkeLi+wjyZm7BXcP6a7XnpX9XCWVxy7ybBRFKs9NBWYmvDxldZihixV8burdQyYM3jrZb5LNWDgO2Q5QQr/DyKHaHljTF08AAAAAElFTkSuQmCC;" parent="1" vertex="1">
          <mxGeometry x="700" y="930" width="75" height="73" as="geometry" />
        </mxCell>
        <mxCell id="H6FMv9vEYMpOUpdUiK6w-1" value="" style="sketch=0;points=[[0,0,0],[0.25,0,0],[0.5,0,0],[0.75,0,0],[1,0,0],[0,1,0],[0.25,1,0],[0.5,1,0],[0.75,1,0],[1,1,0],[0,0.25,0],[0,0.5,0],[0,0.75,0],[1,0.25,0],[1,0.5,0],[1,0.75,0]];points=[[0,0,0],[0.25,0,0],[0.5,0,0],[0.75,0,0],[1,0,0],[0,1,0],[0.25,1,0],[0.5,1,0],[0.75,1,0],[1,1,0],[0,0.25,0],[0,0.5,0],[0,0.75,0],[1,0.25,0],[1,0.5,0],[1,0.75,0]];outlineConnect=0;fontColor=#232F3E;fillColor=#E7157B;strokeColor=#ffffff;dashed=0;verticalLabelPosition=bottom;verticalAlign=top;align=center;html=1;fontSize=12;fontStyle=0;aspect=fixed;shape=mxgraph.aws4.resourceIcon;resIcon=mxgraph.aws4.managed_service_for_grafana;" vertex="1" parent="1">
          <mxGeometry x="150" y="1060" width="78" height="78" as="geometry" />
        </mxCell>
        <mxCell id="H6FMv9vEYMpOUpdUiK6w-4" style="edgeStyle=orthogonalEdgeStyle;rounded=0;orthogonalLoop=1;jettySize=auto;html=1;exitX=0.5;exitY=1;exitDx=0;exitDy=0;exitPerimeter=0;entryX=0;entryY=0.5;entryDx=0;entryDy=0;entryPerimeter=0;" edge="1" parent="1" source="_HeCEHXMy81gqy9KuDD3-35" target="H6FMv9vEYMpOUpdUiK6w-1">
          <mxGeometry relative="1" as="geometry" />
        </mxCell>
        <mxCell id="H6FMv9vEYMpOUpdUiK6w-5" style="edgeStyle=orthogonalEdgeStyle;rounded=0;orthogonalLoop=1;jettySize=auto;html=1;exitX=0.5;exitY=1;exitDx=0;exitDy=0;exitPerimeter=0;entryX=1;entryY=0.5;entryDx=0;entryDy=0;entryPerimeter=0;" edge="1" parent="1" source="_HeCEHXMy81gqy9KuDD3-36" target="H6FMv9vEYMpOUpdUiK6w-1">
          <mxGeometry relative="1" as="geometry" />
        </mxCell>
      </root>
    </mxGraphModel>
  </diagram>
</mxfile>
